<svg id="Layer_1" data-name="Layer 1" xmlns="http://www.w3.org/2000/svg" viewBox="0 0 473.94 474"><title>cog</title><path d="M462.92,251c0-6.92,8.95-12.53,20.05-12.65-.21-4-.52-7.95-.92-11.88-10.74,1.4-20.14-2.71-21.2-9.43s6.61-13.54,17.27-15.52q-1.23-5.84-2.75-11.54c-10.2,2.81-19.82.2-21.88-6.16s4.19-14.13,14.11-17.84q-2.13-5.53-4.52-10.92c-9.46,4.11-19.08,3-22.06-2.89s1.75-14.33,10.66-19.57q-3-5.11-6.15-10.06c-8.58,5.25-18,5.52-21.77.31s-.62-14.1,7.06-20.64q-3.7-4.6-7.64-9c-7.57,6.26-16.58,7.86-21.05,3.38S399.27,83,405.59,75.43c-2.91-2.65-5.9-5.22-8.94-7.72-6.47,7.15-14.95,10-20,6.33s-5-12.72-.07-21.13q-4.93-3.25-10-6.27c-5.28,7.9-13.09,11.92-18.6,9.12s-6.86-11.64-3.46-20.63c-3.58-1.63-7.21-3.19-10.89-4.65-4,8.51-11,13.6-16.85,11.71s-8.56-10.31-6.69-19.64q-5.69-1.57-11.49-2.89c-2.64,8.92-8.74,15-14.75,14s-10-8.74-9.7-18.18q-5.85-.69-11.81-1.09c-1.24,9.15-6.3,16-12.36,16s-11.26-7-12.41-16.4q-6,.21-11.84.72C225.9,24,222,31.52,216,32.47s-12.26-5.25-14.85-14.36q-5.83,1.13-11.58,2.53c1.7,9.15-1,17.3-6.79,19.19s-13-3.34-17-12q-5.59,2-11,4.29c3.2,8.83,1.83,17.42-3.63,20.2S137.6,51,132.33,42.88c-3.46,1.89-6.87,3.88-10.23,5.94,4.66,8.29,4.71,17.1-.3,20.74s-13.72.74-20.22-6.58q-4.68,3.6-9.19,7.44c6.07,7.51,7.58,16.35,3.16,20.77S81.86,94,74.24,87.6c-2.72,2.85-5.36,5.78-7.93,8.76,7.41,6.51,10.41,15.17,6.69,20.31s-13.37,5-22-.46q-3.34,4.86-6.47,9.87c8.61,5.26,13.13,13.53,10.2,19.28s-12.78,7-22.33,2.77q-2.57,5.31-4.86,10.76c9.64,3.78,15.65,11.41,13.62,17.67-2.09,6.41-11.86,9-22.15,6.07q-1.71,5.66-3.13,11.44c10.39,2.11,17.8,8.82,16.76,15.43-1.08,6.77-10.63,10.89-21.48,9.39q-.8,5.88-1.3,11.84c10.85.28,19.51,5.82,19.51,12.63,0,7-9.09,12.64-20.32,12.66q.12,6,.55,12c11-1.65,20.75,2.5,21.84,9.35s-7,13.93-18.16,15.7l-.57.07q1.07,6,2.44,11.84l.35-.13c10.71-3.48,21.14-.91,23.3,5.74S34,325.4,23.3,328.88c-.38.12-.75.22-1.12.32q2,5.79,4.32,11.43l.83-.46c10-5.11,20.73-4.2,23.92,2s-2.39,15.42-12.43,20.53c-.51.26-1,.5-1.54.73q2.92,5.43,6.13,10.7c.38-.3.76-.61,1.16-.9,9.11-6.63,19.82-7.4,23.94-1.75s0,15.61-9.06,22.23c-.59.43-1.19.83-1.8,1.22q3.78,4.94,7.81,9.67c.42-.47.85-.93,1.31-1.39,8-8,18.43-10.42,23.37-5.47s2.5,15.41-5.46,23.37c-.63.63-1.28,1.21-1.93,1.77q4.55,4.33,9.34,8.41c.41-.65.84-1.3,1.3-1.95,6.62-9.11,16.57-13.16,22.23-9.05s4.88,14.83-1.74,23.93c-.6.83-1.24,1.6-1.89,2.35q5.24,3.6,10.66,6.92c.34-.83.7-1.67,1.12-2.49,5.12-10,14.31-15.6,20.54-12.43s7.14,13.89,2,23.92c-.52,1-1.09,2-1.68,2.89q5.78,2.74,11.72,5.17c.22-1,.47-1.94.79-2.92,3.48-10.71,11.69-17.64,18.34-15.48s9.22,12.59,5.74,23.3A35.23,35.23,0,0,1,180,478.8q6.16,1.8,12.46,3.26c.07-1.05.16-2.12.34-3.2,1.76-11.12,8.78-19.25,15.69-18.16s11.07,11,9.31,22.12a33.7,33.7,0,0,1-.78,3.57q6.38.78,12.85,1.21c-.1-1.06-.17-2.14-.17-3.24,0-11.26,5.66-20.39,12.65-20.39S255,473.1,255,484.35a33.46,33.46,0,0,1-.21,3.65q6.48-.22,12.88-.81c-.27-1-.5-2.08-.68-3.17-1.77-11.13,2.41-21,9.31-22.13s13.94,7,15.7,18.16a32.39,32.39,0,0,1,.35,3.61q6.36-1.25,12.59-2.83a28,28,0,0,1-1.15-3c-3.49-10.71-.92-21.14,5.73-23.31s14.86,4.78,18.34,15.48a31.27,31.27,0,0,1,.89,3.38c4-1.49,8-3.1,11.9-4.8-.52-.84-1-1.69-1.49-2.6-5.12-10-4.21-20.74,2-23.92s15.42,2.39,20.53,12.42c.5,1,.92,1.95,1.31,2.93,3.69-2.1,7.34-4.28,10.91-6.56-.58-.68-1.15-1.37-1.69-2.11-6.62-9.11-7.4-19.83-1.75-23.94s15.61-.06,22.23,9.05c.57.78,1.07,1.57,1.55,2.37,3.28-2.62,6.49-5.34,9.63-8.13-.57-.5-1.13-1-1.68-1.56-8-8-10.41-18.42-5.47-23.37s15.41-2.49,23.37,5.47c.58.58,1.13,1.18,1.65,1.78,2.79-3.07,5.5-6.23,8.13-9.45-.52-.33-1-.68-1.55-1.05-9.11-6.61-13.16-16.56-9.05-22.23s14.83-4.87,23.94,1.75c.53.38,1.05.79,1.55,1.2q3.38-5.16,6.49-10.51c-.43-.19-.85-.38-1.27-.59-10-5.11-15.6-14.3-12.43-20.54s13.89-7.13,23.92-2c.44.22.86.47,1.29.7q2.49-5.56,4.69-11.29c-.28-.08-.56-.15-.84-.25-10.71-3.47-17.64-11.68-15.48-18.34s12.59-9.22,23.3-5.73c.29.09.56.2.84.3q1.56-5.83,2.83-11.77l-.29,0c-11.12-1.76-19.25-8.78-18.16-15.69s11-11.08,22.12-9.32l.27.05q.61-5.93.93-12C471.87,263.54,462.92,257.92,462.92,251ZM141.4,382.5c-15.29,8.83-38-11.49-54.32-39.75s-22.56-58.09-7.27-66.92c12.72-7.34,43.13,10.77,58.48,37.36S154.12,375.16,141.4,382.5Zm-3.11-193.69c-15.35,26.59-45.76,44.7-58.48,37.35-15.29-8.82-9-38.65,7.27-66.91s39-48.59,54.32-39.76C154.12,126.84,153.64,162.23,138.29,188.81ZM246,67.5c32.63,0,61.59,9.5,61.59,27.16,0,14.69-30.89,32-61.59,32s-61.59-17.28-61.59-32C184.41,77,213.37,67.5,246,67.5Zm0,367c-32.63,0-61.59-9.5-61.59-27.16,0-14.69,30.89-32,61.59-32s61.59,17.27,61.59,32C307.59,425,278.63,434.5,246,434.5Zm0-100.3A83.2,83.2,0,1,1,329.2,251,83.2,83.2,0,0,1,246,334.2Zm158.92,8.55c-16.32,28.26-39,48.59-54.32,39.76-12.72-7.35-12.24-42.74,3.11-69.32s45.76-44.7,58.48-37.35C427.48,284.66,421.23,314.49,404.92,342.75Zm7.27-116.58c-12.72,7.34-43.13-10.77-58.48-37.36s-15.83-62-3.11-69.31c15.29-8.83,38,11.49,54.32,39.75S427.48,217.34,412.19,226.17Z" transform="translate(-9.03 -14)" fill="#535353"/><circle cx="236.97" cy="236" r="104" fill="none" stroke="#fff" stroke-miterlimit="10" stroke-width="3.78"/></svg>