<svg id="Layer_1" data-name="Layer 1" xmlns="http://www.w3.org/2000/svg" viewBox="0 0 117.52 54.97"><title>logo</title><path d="M20.85,22.17c0-3.4-2.05-6.39-4.52-9-1.46-1.59-3.55-3.4-3.55-5.49a3,3,0,0,1,3.21-3,2.91,2.91,0,0,1,3,1.93,2.75,2.75,0,0,0,1.09,5.27c2.09,0,3.24-1.9,3.24-3.9,0-2.83-2.36-6.5-7.57-6.5-4.95,0-7.59,3.33-7.59,7,0,3.4,2.24,5.58,4.67,8.1,2,2,3.14,3.86,3.14,5.85a5.05,5.05,0,0,1-5.2,5.08C8,27.46,6,25.56,6,23.54a2.23,2.23,0,0,1,2.18-2.37,2.55,2.55,0,0,1,2.15,1.4l2.55-3.08A6.21,6.21,0,0,0,7.8,16.65a6.19,6.19,0,0,0-6,6.51c0,4.58,3.77,8,9.06,8C16.52,31.2,20.85,27.15,20.85,22.17Z" transform="translate(-1.76 -1.43)"/><path d="M48.72,8.06A2.61,2.61,0,0,0,51.4,5.41a2.67,2.67,0,1,0-5.33,0A2.6,2.6,0,0,0,48.72,8.06Z" transform="translate(-1.76 -1.43)"/><path d="M113.65,8.06a2.61,2.61,0,0,0,2.67-2.65,2.66,2.66,0,1,0-5.32,0A2.6,2.6,0,0,0,113.65,8.06Z" transform="translate(-1.76 -1.43)"/><path d="M110.56,26c3.77,0,6.51-3.36,8.72-8.19a3,3,0,0,0-1.77-.87c-1.75,3.55-3.43,5.88-5.17,5.88-1.22,0-1.4-1.06-1-2.4l3.24-10.58H110l-2.26,7.37a6.14,6.14,0,0,1-4,3.24,12,12,0,0,0,1.18-5c0-4-2.37-5.86-5-5.86a6.76,6.76,0,0,0-4.4,1.9L97.89,4H93.34l-4,13.26a6,6,0,0,1-3.76,3.21,9.37,9.37,0,0,0,1-4.08c0-4.05-3-6.76-7.16-6.76a9.82,9.82,0,0,0-9.49,8.92c-1.46,2.63-2.93,4.35-4.12,4.35-.93,0-.9-1-.56-2.05l1.4-4.58c1-3.33.07-6.64-3.48-6.64a6,6,0,0,0-4.46,2.31l.62-2H54.7l-2.26,7.37c-1.69,3.39-3.33,5.61-5,5.61-1.21,0-1.4-1.06-1-2.4L49.65,9.87H45.11l-2.28,7.41c-1.67,3.31-3.4,5.57-4.76,5.57-.93,0-.9-1-.56-2.05l1.4-4.58c1-3.33.06-6.64-3.49-6.64A6,6,0,0,0,31,11.89L33.4,4H28.85l-6.66,21.8h1.88A15,15,0,0,0,17.3,38.43c0,6.4,4,10.52,10,10.52a13.36,13.36,0,0,0,10.64-5.49c.24,1.89,1.45,3.26,4,3.26A5.32,5.32,0,0,0,45.77,45L45,47.59c-2.61.72-8.11,1.33-8.11,5.26,0,2.07,1.57,3.54,4.21,3.54s6-1.5,7.9-7.6l.18-.6a16.53,16.53,0,0,0,6.79-5.65c.9,2.69,3.39,4.27,6.9,4.27a10.21,10.21,0,0,0,7.75-3.48,3.39,3.39,0,0,0,3.75,3.39c2.53,0,4.59-1.58,6.32-4.11.92,2.66,3.39,4.2,6.87,4.2a10.21,10.21,0,0,0,7.53-3.25,7.56,7.56,0,0,0,6.52,3.25c6.16,0,9.16-3.45,11.23-8a2.94,2.94,0,0,0-1.71-.85,13.19,13.19,0,0,1-3.87,5.23,6.75,6.75,0,0,0,.36-2.22c0-3.58-2.71-6.55-3.85-10.21L100.22,30A55.4,55.4,0,0,1,97,37.59c-1.08-.18-2.8.69-2.8,3.22,0,.13,0,.27,0,.41a7.47,7.47,0,0,1-5.34,2.56A3.59,3.59,0,0,1,85,40.93c6.67.18,9.22-3.16,9.22-5.77,0-2.31-2.07-4.29-5.4-4.29-4.89,0-8.22,4.25-8.56,8.55-1.42,2.6-2.8,4.24-4.24,4.24-1.17,0-1.35-1-1-2.31L80,25.52a9.7,9.7,0,0,0,4-2.73,8.29,8.29,0,0,0,3.94-1.08l-1.23,4h4.54l.94-3.05A4.35,4.35,0,0,0,96.55,26a7.54,7.54,0,0,0,5.76-3.21,7.74,7.74,0,0,0,4.38-1.23C106.53,24.15,107.69,26,110.56,26ZM40.67,54a1.34,1.34,0,0,1-1.47-1.32c0-1.62,2.73-2.16,5-2.73C43.43,52.52,42.11,54,40.67,54Zm58-15.53c.75-1.44,1.47-3,2.1-4.56.84,2.55,2.34,4.93,2.34,7,0,1.86-1.08,3-2.61,3A2.41,2.41,0,0,1,98,42.13a2.39,2.39,0,0,0,.63-3.67Zm-9.88-3.87c1.08,0,1.5.63,1.5,1.32,0,1.32-1.62,3-5.32,3C85.29,36.54,86.89,34.59,88.78,34.59ZM29.88,15.41c.9-1.12,1.93-2,3.18-2,1.58,0,1.77,1.37,1.27,3L33.24,19.8a6.49,6.49,0,0,0,.1,4.8,9.75,9.75,0,0,0-3.27-.52,11.66,11.66,0,0,0-2.94.38Zm41.77,22.8c-1.84,3.58-4.65,5.57-7.44,5.57a3.65,3.65,0,0,1-4-4c0-2.95,2.13-5.71,4.35-5.71a2,2,0,0,1,.9.18A2.45,2.45,0,0,0,67,38.65c1.84,0,2.83-1.69,2.83-3.31,0-2.16-1.74-4.47-5.5-4.47-5.06,0-8.34,4.28-8.7,8.52A15.53,15.53,0,0,1,50,45.49l4.38-14.35H50l-3.07,10a4.12,4.12,0,0,1-3,2c-1.62,0-1.71-1.32-1.23-2.85l2.76-9.1H41.06l-2.13,7c-2.27,4.46-6.12,7.1-10.1,7.1s-6.57-2.79-6.57-7.33c0-5.58,4-10.18,8.23-10.18,1.77,0,2.7.79,2.88,1.72a2.63,2.63,0,0,0,1.11,5c2.1,0,3.27-2,3.27-4a6,6,0,0,0-2-4.42c.14,0,.27,0,.42,0,2.11,0,4-1.25,5.63-3.24A3.46,3.46,0,0,0,45.64,26a6.76,6.76,0,0,0,4.76-2.12l-.56,1.84h4.55l3.14-10.34c.9-1.12,1.93-2,3.18-2,1.59,0,1.77,1.37,1.27,3L60.9,19.8c-.81,2.65-.72,6.23,2.92,6.23,2.46,0,4.61-1.68,6.41-4.27a6.48,6.48,0,0,0,5.22,4.15ZM81.76,17.68a2.86,2.86,0,0,0-.53-.06,2.54,2.54,0,0,0-2.52,2.55,2.44,2.44,0,0,0,.5,1.53,3.75,3.75,0,0,1-2.09.65c-1.37,0-2.8-.84-2.8-3.24,0-3.08,2.33-5.82,4.7-5.82,1.37,0,2.86.84,2.86,3.27A6.74,6.74,0,0,1,81.76,17.68ZM95.8,22c-1.24,0-2.33-.93-2.33-2.77a7,7,0,0,1,.9-3.24v.06a6.48,6.48,0,0,0,3,5.45A3.2,3.2,0,0,1,95.8,22ZM99,20a4.35,4.35,0,0,1-2.71-4.08c0-1.68.81-2.71,2.06-2.71s2,1,2,2.71A7.24,7.24,0,0,1,99,20Z" transform="translate(-1.76 -1.43)"/></svg>